<svg xmlns="http://www.w3.org/2000/svg" width="317.212" height="69.589" viewBox="0 0 317.212 69.589">
  <g id="Layer_2" data-name="Layer 2" transform="translate(0.001 -0.001)">
    <g id="Group_2" data-name="Group 2" transform="translate(49.363 17.171)">
      <path id="Path_1" data-name="Path 1" d="M336.486,192.565l-5.169-.932c.792-2.837.278-5.274,2.213-6.639s4.808-2.045,8.621-2.045q5.193,0,7.736,1.23a7.726,7.726,0,0,1,3.578,3.123q1.036,1.892,1.036,6.95l-.083,9.063a31.487,31.487,0,0,0,.372,5.706,16.62,16.62,0,0,0,1.4,3.937H348.5q-.3-.773-.746-2.293c-.13-.46-.22-.764-.277-.911a14,14,0,0,1-4.254,2.9,12.185,12.185,0,0,1-4.835.966,10,10,0,0,1-7.142-2.459,8.172,8.172,0,0,1-2.61-6.217,8.344,8.344,0,0,1,1.188-4.435,7.764,7.764,0,0,1,3.33-2.984,25.976,25.976,0,0,1,6.175-1.809,42.308,42.308,0,0,0,7.542-1.906v-.774a4.024,4.024,0,0,0-1.1-3.191q-1.106-.954-4.173-.953a5.568,5.568,0,0,0-3.233.815,5.665,5.665,0,0,0-1.879,2.859Zm10.39,6.3a48.3,48.3,0,0,1-4.725,1.188,14.218,14.218,0,0,0-4.228,1.354,3.24,3.24,0,0,0-1.52,2.736,3.782,3.782,0,0,0,1.215,2.819,4.243,4.243,0,0,0,3.094,1.188,6.716,6.716,0,0,0,4.006-1.382,4.86,4.86,0,0,0,1.851-2.57,15.33,15.33,0,0,0,.3-3.785v-1.547Z" transform="translate(-328.64 -172.45)" fill="#cb2026"/>
      <path id="Path_2" data-name="Path 2" d="M580.076,212.957h-7.764V197.981a23.115,23.115,0,0,0-.5-6.147,4.317,4.317,0,0,0-1.616-2.17,4.624,4.624,0,0,0-2.694-.774,6.237,6.237,0,0,0-3.62,1.1,5.563,5.563,0,0,0-2.2,2.929,25.309,25.309,0,0,0-.594,6.741v13.29H553.33V183.613h7.212v4.311a12.022,12.022,0,0,1,14.367-4.047,7.891,7.891,0,0,1,3.219,2.362,8.577,8.577,0,0,1,1.52,3.26,24.209,24.209,0,0,1,.429,5.222v18.236Z" transform="translate(-519.871 -172.45)" fill="#cb2026"/>
      <path id="Path_3" data-name="Path 3" d="M802.782,152.947H795.57v-4.311a11.634,11.634,0,0,1-4.241,3.744,10.893,10.893,0,0,1-4.932,1.23,11.174,11.174,0,0,1-8.662-4.076q-3.605-4.076-3.605-11.369c0-4.862,1.169-8.755,3.508-11.343a11.439,11.439,0,0,1,8.869-3.882,10.989,10.989,0,0,1,8.51,4.089V112.44h7.764v40.506ZM782.06,137.64q0,4.7,1.3,6.8a5.865,5.865,0,0,0,5.249,3.039,5.715,5.715,0,0,0,4.56-2.28q1.878-2.281,1.879-6.811,0-5.057-1.824-7.28a5.994,5.994,0,0,0-9.3-.028q-1.865,2.2-1.864,6.563Z" transform="translate(-707.791 -112.44)" fill="#cb2026"/>
      <path id="Path_4" data-name="Path 4" d="M1005.88,197.88a15.877,15.877,0,0,1,1.906-7.487,13.1,13.1,0,0,1,5.4-5.526,16.024,16.024,0,0,1,7.806-1.906,14.65,14.65,0,0,1,10.914,4.324,14.939,14.939,0,0,1,4.255,10.927,15.184,15.184,0,0,1-4.3,11.039,14.521,14.521,0,0,1-10.817,4.38,17.021,17.021,0,0,1-7.694-1.824,12.511,12.511,0,0,1-5.568-5.346,17.806,17.806,0,0,1-1.906-8.579Zm7.958.414q0,4.367,2.073,6.686a6.773,6.773,0,0,0,10.209,0q2.057-2.321,2.058-6.741c0-2.947-.686-5.084-2.058-6.631a6.773,6.773,0,0,0-10.209,0Q1013.838,193.928,1013.838,198.294Z" transform="translate(-905.03 -172.459)" fill="#cb2026"/>
      <path id="Path_5" data-name="Path 5" d="M1239.4,214.907l8.869,1.078a3.029,3.029,0,0,0,1.023,2.128,5.839,5.839,0,0,0,3.482.829,9.048,9.048,0,0,0,4.56-.911,3.759,3.759,0,0,0,1.547-1.961,11.785,11.785,0,0,0,.359-3.565v-4.283a10.5,10.5,0,0,1-8.786,4.752,10.816,10.816,0,0,1-9.367-5,17,17,0,0,1-2.707-9.836q0-7.378,3.55-11.273a11.455,11.455,0,0,1,8.828-3.9,10.889,10.889,0,0,1,8.979,4.78v-4.117H1267v26.332a26.271,26.271,0,0,1-.856,7.764,9.645,9.645,0,0,1-2.4,4.034,10.643,10.643,0,0,1-4.131,2.293,21.749,21.749,0,0,1-6.534.829q-7.46,0-10.582-2.555a8.018,8.018,0,0,1-3.123-6.479c0-.258.009-.572.028-.94Zm6.935-17.214q0,4.671,1.809,6.838a5.6,5.6,0,0,0,4.463,2.17,6.172,6.172,0,0,0,4.808-2.225q1.961-2.225,1.961-6.589c0-2.91-.627-5.3-1.879-6.77a5.967,5.967,0,0,0-4.752-2.21,5.656,5.656,0,0,0-4.6,2.17q-1.809,2.169-1.809,6.618Z" transform="translate(-1102.908 -172.467)"/>
      <path id="Path_6" data-name="Path 6" d="M1487.714,212.966h-7.764V183.623h7.212V187.8a12.537,12.537,0,0,1,3.33-3.9,6.132,6.132,0,0,1,3.356-.94,9.863,9.863,0,0,1,5.112,1.464l-2.4,6.77a6.814,6.814,0,0,0-3.647-1.272,4.238,4.238,0,0,0-2.762.9,6.145,6.145,0,0,0-1.782,3.246q-.65,2.348-.649,9.836v9.063Z" transform="translate(-1308.505 -172.459)"/>
      <path id="Path_7" data-name="Path 7" d="M1624.176,192.557l-7.045-1.272a10.977,10.977,0,0,1,4.089-6.3q2.9-2.044,8.62-2.045,5.193,0,7.736,1.23a7.725,7.725,0,0,1,3.578,3.123q1.036,1.892,1.036,6.95l-.083,9.063a31.479,31.479,0,0,0,.372,5.706,16.609,16.609,0,0,0,1.4,3.937h-7.681q-.3-.773-.746-2.293c-.13-.46-.22-.764-.277-.911a14,14,0,0,1-4.255,2.9,12.184,12.184,0,0,1-4.835.966,10,10,0,0,1-7.142-2.459,8.172,8.172,0,0,1-2.61-6.217,8.344,8.344,0,0,1,1.188-4.435,7.762,7.762,0,0,1,3.33-2.984,25.977,25.977,0,0,1,6.175-1.809,42.309,42.309,0,0,0,7.542-1.906v-.774a4.024,4.024,0,0,0-1.1-3.191q-1.106-.954-4.172-.953a5.567,5.567,0,0,0-3.233.815A5.665,5.665,0,0,0,1624.176,192.557Zm10.39,6.3a48.286,48.286,0,0,1-4.725,1.188,14.22,14.22,0,0,0-4.228,1.354,3.24,3.24,0,0,0-1.52,2.736,3.782,3.782,0,0,0,1.215,2.819,4.243,4.243,0,0,0,3.094,1.188,6.716,6.716,0,0,0,4.006-1.382,4.86,4.86,0,0,0,1.851-2.57,15.339,15.339,0,0,0,.3-3.785v-1.547Z" transform="translate(-1424.577 -172.442)"/>
      <path id="Path_8" data-name="Path 8" d="M1837.5,183.6h7.157v4.006q3.84-4.668,9.146-4.67a9.857,9.857,0,0,1,4.89,1.16,8.915,8.915,0,0,1,3.4,3.508,13.554,13.554,0,0,1,4.172-3.508,10.246,10.246,0,0,1,4.78-1.16,10.657,10.657,0,0,1,5.471,1.312,8.042,8.042,0,0,1,3.343,3.854,16.713,16.713,0,0,1,.8,6.079v18.761h-7.764V196.174q0-4.365-.8-5.636a3.679,3.679,0,0,0-3.316-1.657,5.3,5.3,0,0,0-3.068.995,5.523,5.523,0,0,0-2.073,2.916,20.943,20.943,0,0,0-.636,6.065v14.092h-7.764V196.866a22.36,22.36,0,0,0-.414-5.526,3.515,3.515,0,0,0-1.285-1.851,4.062,4.062,0,0,0-2.362-.608,5.668,5.668,0,0,0-3.233.966,5.306,5.306,0,0,0-2.058,2.791,20.762,20.762,0,0,0-.621,6.05v14.257H1837.5V183.6Z" transform="translate(-1612.812 -172.442)"/>
    </g>
    <path id="Path_9" data-name="Path 9" d="M35.635,45.574a17.173,17.173,0,1,1,0-32.476l8.685-8.685C27.067-5.391,1.071,3.309.505,29.688c-.448,20.9,23.82,36.619,43.85,24.167l-8.722-8.281Z" transform="translate(0)" fill="#c00" stroke="#c00" stroke-miterlimit="10" stroke-width="1"/>
    <path id="Path_10" data-name="Path 10" d="M236.78,137.23l3.187-3.187a.152.152,0,0,1,.22.009q7.512,8.879,0,17.756a.149.149,0,0,1-.22.009l-3.191-3.191a.149.149,0,0,1-.019-.185c2.439-3.8,2.667-7.324.009-11.02A.147.147,0,0,1,236.78,137.23Z" transform="translate(-201.055 -113.619)" stroke="#000" stroke-linejoin="round" stroke-width="1"/>
    <path id="Path_11" data-name="Path 11" d="M272.041,99.464l3.374-3.374a.149.149,0,0,1,.223.013c7.687,9.836,8.089,19.446,0,28.8a.149.149,0,0,1-.219.007l-3.294-3.294a.148.148,0,0,1-.01-.2c5.493-6.844,5.127-14.123-.094-21.764a.151.151,0,0,1,.016-.189Z" transform="translate(-231.068 -81.316)" stroke="#000" stroke-linejoin="round" stroke-width="1"/>
    <path id="Path_12" data-name="Path 12" d="M309.454,62.293l3.531-3.531a.151.151,0,0,1,.223.013c10.673,13.561,11.018,26.92,0,40.057a.151.151,0,0,1-.22.01L309.441,95.3a.147.147,0,0,1-.015-.192c8.046-11.225,7.738-22.084.013-32.619A.147.147,0,0,1,309.454,62.293Z" transform="translate(-262.899 -49.548)" stroke="#000" stroke-linejoin="round" stroke-width="1"/>
    <path id="Path_13" data-name="Path 13" d="M172.886,163.324a5.776,5.776,0,1,1,0-4.737v4.735Z" transform="translate(-137.315 -131.645)" stroke="#000" stroke-linejoin="round" stroke-width="1"/>
  </g>
</svg>
